# xmcd
#
# Track frame offsets:
#	150
#	18770
#	38535
#
# Disc length: 741 seconds
#
# Revision: 4
# Processed by: cddbd v1.4b41PL2 Copyright (c) Steve Scherf et al.
# Submitted via: CDmax 1.7.6
#
DISCID=1202e303
DTITLE=Jim White - Pensacola, Texas
DYEAR=1900
DGENRE=
TTITLE0=Handcuffed To A Fence In Mississippi
TTITLE1=The Wound That Never Heals
TTITLE2=Corvair
EXTD=
EXTT0=
EXTT1=
EXTT2=
PLAYORDER=
